<?xml version="1.0" standalone="no"?>
<!DOCTYPE svg PUBLIC "-//W3C//DTD SVG 20010904//EN"
 "http://www.w3.org/TR/2001/REC-SVG-20010904/DTD/svg10.dtd">
<svg version="1.0" xmlns="http://www.w3.org/2000/svg"
 width="200.000000pt" height="200.000000pt" viewBox="0 0 200.000000 200.000000"
 preserveAspectRatio="xMidYMid meet">
<metadata>
Created by potrace 1.11, written by Peter Selinger 2001-2013
</metadata>
<g transform="translate(0.000000,200.000000) scale(0.100000,-0.100000)"
fill="#000000" stroke="none">
<path d="M921 1699 c-198 -26 -375 -184 -435 -387 -10 -37 -15 -87 -13 -162
l2 -108 -60 -18 c-33 -9 -66 -18 -72 -20 -45 -9 -333 -173 -333 -190 0 -2 18
-15 41 -29 90 -57 272 -115 445 -141 41 -6 57 -16 117 -73 38 -36 76 -70 85
-76 10 -6 136 -11 313 -11 289 -1 298 -1 322 20 15 11 56 41 92 66 37 25 72
50 79 57 7 6 37 14 67 18 79 10 222 60 322 113 48 26 87 49 87 52 -1 12 -38
48 -87 83 -59 43 -177 100 -243 117 -25 6 -62 16 -83 21 -33 9 -37 13 -31 31
11 36 8 171 -6 229 -23 96 -70 179 -145 254 -126 126 -282 178 -464 154z"/>
</g>
</svg>
